<?xml version="1.0" encoding="utf-8"?>
<svg version="1.0" xmlns="http://www.w3.org/2000/svg" width="718pt" height="551.8pt" viewBox="0 0 718.6 551.8" xmlns:bx="https://boxy-svg.com">
  <defs>
    <linearGradient gradientUnits="userSpaceOnUse" bx:pinned="true" id="color-0">
      <stop style="stop-color: rgb(227, 173, 37);"/>
    </linearGradient>
    <linearGradient gradientUnits="userSpaceOnUse" bx:pinned="true" id="color-2">
      <stop style="stop-color: rgb(36, 36, 36);"/>
    </linearGradient>
    <bx:export>
      <bx:file format="svg" href="#object-0" units="pt"/>
      <bx:file format="html" href="#object-0"/>
      <bx:file format="png" href="#object-0"/>
      <bx:file format="png" path="Untitled 2.png"/>
      <bx:file format="svg" path="Untitled 2.svg" units="pt"/>
    </bx:export>
  </defs>
  <g transform="matrix(0.1, 0, 0, -0.1, -153.000002, 817.000012)" fill="#000000" stroke="none" id="object-0">
    <g>
      <path d="M4916 7984 c-105 -103 -707 -705 -1338 -1338 l-1148 -1151 289 -3 288 -2 829 831 c456 457 931 930 1056 1051 l228 220 1052 -1046 1053 -1046 283 0 c155 0 282 4 282 9 0 12 -2659 2661 -2672 2661 -6 0 -96 -84 -202 -186z" style="fill: url(&quot;#color-0&quot;);"/>
      <path d="M4660 6390 l0 -210 205 0 205 0 0 210 0 210 -205 0 -205 0 0 -210z" style="fill: url(&quot;#color-0&quot;);"/>
      <path d="M5160 6390 l0 -210 205 0 205 0 0 210 -1 210 -205 0 -204 0 0 -210z" style="fill: url(&quot;#color-0&quot;);"/>
      <path d="M4660 5880 l0 -210 205 0 205 0 0 210 0 210 -205 0 -205 0 0 -210z" style="fill: url(&quot;#color-0&quot;);"/>
      <path d="M5160 5880 l0 -210 205 0 205 0 0 210 0 210 -205 0 -205 0 0 -210z" style="fill: url(&quot;#color-0&quot;);"/>
    </g>
    <g>
      <path d="M5682 5010 c-156 -41 -277 -137 -350 -277 -58 -114 -76 -193 -76 -348 0 -225 52 -365 183 -495 116 -115 236 -163 406 -163 283 0 488 166 556 451 18 74 20 108 16 232 -6 174 -30 258 -109 377 -133 197 -383 287 -626 223z m270 -264 c124 -60 188 -213 175 -420 -9 -144 -50 -239 -129 -296 -54 -39 -109 -53 -183 -47 -151 11 -243 123 -265 319 -10 89 1 209 25 280 28 79 104 153 185 179 40 13 152 5 192 -15z" style="fill: url(&quot;#color-2&quot;);"/>
      <path d="M3213 5002 l-152 -3 -45 -137 c-24 -75 -83 -263 -131 -417 -47 -154 -89 -288 -93 -297 -4 -11 -58 146 -142 417 l-135 435 -162 0 -162 0 75 -217 c244 -702 354 -1025 354 -1034 0 -5 65 -9 159 -9 l158 0 31 88 c114 322 402 1166 400 1171 -2 3 -71 5 -155 3z" style="fill: url(&quot;#color-2&quot;);"/>
      <path d="M4849 5003 l-85 -4 -136 -260 -136 -261 -57 103 c-32 57 -97 174 -145 259 l-87 155 -151 3 -152 3 0 -631 0 -630 140 0 140 0 2 395 3 395 140 -251 c77 -139 145 -258 150 -266 8 -11 44 45 155 239 80 139 148 261 152 270 4 10 9 18 10 18 2 0 2 -180 0 -400 l-3 -400 140 0 141 0 0 635 0 635 -67 -2 c-38 -1 -106 -4 -154 -5z" style="fill: url(&quot;#color-2&quot;);"/>
      <path d="M6593 4823 c4 -104 7 -388 7 -633 l0 -445 140 3 140 3 0 381 0 381 131 -214 c72 -118 179 -292 237 -386 l106 -173 133 0 133 0 -1 636 -1 636 -142 -3 -141 -4 -5 -362 -5 -362 -225 364 -225 364 -144 1 -144 0 6 -187z" style="fill: url(&quot;#color-2&quot;);"/>
      <path d="M8187 5003 l-418 -3 3 -125 3 -125 163 0 162 0 2 -487 c0 -269 1 -494 1 -500 -1 -10 34 -13 143 -13 l144 0 0 500 0 500 163 0 162 0 -3 127 -3 128 -52 0 c-29 0 -240 -1 -470 -2z" style="fill: url(&quot;#color-2&quot;);"/>
      <path d="M1539 4428 c0 -315 -1 -597 -2 -625 l-2 -53 387 0 388 0 0 125 0 125 -242 2 -243 3 0 498 0 497 -142 0 -143 0 -1 -572z" style="fill: url(&quot;#color-2&quot;);"/>
    </g>
    <g>
      <path d="M3255 3286 c-5 -2 -22 -7 -37 -10 -37 -8 -98 -63 -114 -103 -19 -44 -18 -108 2 -150 22 -45 73 -79 158 -104 110 -33 153 -93 98 -136 -28 -23 -104 -15 -166 16 l-57 28 -39 -48 -40 -47 26 -21 c62 -49 211 -74 297 -50 85 23 145 115 134 205 -8 76 -57 125 -165 163 -127 46 -157 77 -115 123 26 28 125 22 172 -11 17 -13 33 -22 35 -20 1 2 17 23 35 47 39 50 35 59 -40 91 -45 20 -160 36 -184 27z" style="fill: url(&quot;#color-0&quot;);"/>
      <path d="M5647 3276 c-142 -38 -236 -179 -225 -335 9 -120 66 -209 166 -258 50 -24 69 -28 148 -28 81 0 97 3 149 30 32 17 60 35 61 40 2 6 -13 29 -34 53 l-37 42 -49 -25 c-108 -55 -212 -16 -251 94 -28 80 -14 158 38 218 58 66 123 79 200 40 l46 -24 41 48 40 48 -42 25 c-81 46 -160 56 -251 32z" style="fill: url(&quot;#color-0&quot;);"/>
      <path d="M3615 3225 l0 -55 88 0 87 0 0 -255 0 -255 65 0 65 0 0 255 0 255 85 -3 85 -2 0 58 0 57 -237 0 -238 0 0 -55z" style="fill: url(&quot;#color-0&quot;);"/>
      <path d="M4230 2970 l0 -310 68 0 67 0 -3 105 -3 105 49 0 50 0 62 -105 62 -105 74 0 c41 0 74 2 74 5 0 2 -32 55 -71 117 -41 65 -66 114 -60 116 26 9 73 57 91 93 23 45 26 125 6 172 -20 49 -77 93 -136 106 -28 6 -114 11 -190 11 l-140 0 0 -310z m321 161 c31 -31 35 -53 19 -96 -13 -35 -65 -55 -145 -55 l-65 0 0 90 0 90 81 0 c76 0 82 -2 110 -29z" style="fill: url(&quot;#color-0&quot;);"/>
      <path d="M4870 2970 l0 -310 220 0 220 0 0 58 0 58 -155 -4 -155 -4 0 76 0 76 133 0 132 0 0 55 0 55 -132 0 -133 0 0 65 0 65 150 0 150 0 0 60 0 60 -215 0 -214 0 -1 -310z" style="fill: url(&quot;#color-0&quot;);"/>
      <path d="M6080 2970 l0 -310 65 0 65 0 0 130 0 130 115 0 115 0 0 -130 0 -130 65 0 65 0 0 310 0 310 -65 0 -65 0 0 -125 0 -125 -115 0 -115 0 0 125 0 125 -65 0 -65 0 0 -310z" style="fill: url(&quot;#color-0&quot;);"/>
      <path d="M6700 3275 c0 -2 24 -44 53 -92 29 -48 76 -129 105 -179 l52 -91 0 -127 0 -126 65 0 65 0 0 128 1 127 109 180 110 180 -71 3 c-40 2 -76 -1 -80 -5 -4 -4 -35 -61 -70 -126 l-62 -119 -65 126 -66 126 -73 0 c-40 0 -73 -2 -73 -5z" style="fill: url(&quot;#color-0&quot;);"/>
    </g>
    <g>
      <path d="M1530 2980 l0 -60 655 0 655 0 0 60 0 60 -655 0 -655 0 0 -60z" style="fill: url(&quot;#color-2&quot;);"/>
      <path d="M7400 2981 l0 -60 661 -1 c604 0 661 1 655 16 -3 8 -6 35 -6 58 l0 42 -655 2 -655 2 0 -59z" style="fill: url(&quot;#color-2&quot;);"/>
    </g>
  </g>
</svg>