<?xml version="1.0" encoding="utf-8"?>
<svg xmlns="http://www.w3.org/2000/svg" viewBox="189.7147 173.841 641.574 667.8517" width="641.574px" height="667.852px" xmlns:bx="https://boxy-svg.com" preserveAspectRatio="none"><defs><linearGradient id="color-1" bx:pinned="true" gradientUnits="userSpaceOnUse"><stop style="stop-color: rgb(6, 80, 155);"/></linearGradient><linearGradient id="color-0" bx:pinned="true" gradientUnits="userSpaceOnUse"><stop style="stop-color: rgb(211, 32, 33);"/></linearGradient></defs><g id="object-2"><title>logo</title><g id="object-0"><title>domcek</title><rect x="607.699" y="213.176" width="50.792" height="79.755" style="fill: url(&quot;#color-1&quot;);"/><polygon style="fill-rule: nonzero; paint-order: fill; fill: url(&quot;#color-0&quot;);" points="730.878 392.974 759.19 370.479 512.133 173.841 265.851 371.255 265.851 410.815 301.145 382.89 302.696 572.547 332.172 571.771 332.949 360.008 512.909 217.668"/><g><title>LF</title><g><title>L</title><rect x="374.71" y="354.08" width="45.32" height="216.593" style="fill: url(&quot;#color-1&quot;);"/><rect x="374.71" y="533.004" width="129.485" height="37.668" style="fill: url(&quot;#color-1&quot;);"/></g><g><title>F</title><rect x="532.446" y="352.445" width="125.954" height="41.788" style="fill: url(&quot;#color-1&quot;);"/><rect x="531.269" y="352.445" width="47.085" height="218.947" style="fill: url(&quot;#color-1&quot;);"/><rect x="558.343" y="444.85" width="84.754" height="37.669" style="fill: url(&quot;#color-1&quot;);"/></g></g></g><g id="object-1"><title>text</title><text style="fill: url(&quot;#color-0&quot;); font-family: Arial; font-size: 118.207px; font-weight: 636; line-height: 189.132px; white-space: pre;" transform="matrix(1.133815, 0, 0, 1.266455, -30.492625, -182.418383)" x="194.218" y="713.315"><title>STRECHY</title>STRECHY</text><text style="fill: url(&quot;#color-1&quot;); font-family: Arial, sans-serif; font-size: 79px; font-weight: 700; white-space: pre;" transform="matrix(1.002414, 0, 0, 1, -0.475679, 0)" x="197.016" y="824.913"><title>KLAMP &amp; BUILD</title>KLAMP &amp; BUILD</text></g></g></svg>